<svg xmlns="http://www.w3.org/2000/svg" viewBox="0 0 20 20"><path d="M5.116 6.004c.83 0 1.512.107 2.044.322.541.205.943.518 1.204.938.261.42.392.947.392 1.582 0 .532-.098.975-.294 1.33-.196.355-.448.64-.756.854a4.181 4.181 0 0 1-.952.49L9.498 16h-1.47l-2.422-4.13H3.618V16h-1.26V6.004h2.758zm-.07 1.092H3.618v3.71h1.498c.541 0 .985-.07 1.33-.21.345-.15.597-.364.756-.644.168-.28.252-.63.252-1.05 0-.439-.089-.789-.266-1.05-.168-.261-.43-.453-.784-.574-.355-.121-.807-.182-1.358-.182zm12.125 1.4V16h-1.008l-.182-.994h-.056a2.032 2.032 0 0 1-.616.644c-.252.168-.527.29-.826.364a3.448 3.448 0 0 1-.938.126c-.597 0-1.101-.093-1.512-.28a1.969 1.969 0 0 1-.91-.896c-.205-.401-.308-.92-.308-1.554V8.496h1.246v4.83c0 .597.135 1.045.406 1.344.27.299.69.448 1.26.448.56 0 .999-.103 1.316-.308.327-.215.555-.523.686-.924.14-.41.21-.905.21-1.484V8.496h1.232z"/></svg>
