<svg xmlns="http://www.w3.org/2000/svg" viewBox="0 0 20 20"><path d="M4.962 6.004c.83 0 1.517.107 2.058.322.541.215.943.541 1.204.98.261.43.392.975.392 1.638 0 .485-.08.9-.238 1.246a2.514 2.514 0 0 1-.644.868 3.589 3.589 0 0 1-.854.546L9.568 16H7.44l-2.17-3.948H4.052V16H2.176V6.004h2.786zm-.084 1.498h-.826v3.08h.854c.401 0 .733-.06.994-.182a1.25 1.25 0 0 0 .602-.532c.14-.233.21-.523.21-.868 0-.364-.065-.653-.196-.868a1.072 1.072 0 0 0-.602-.476c-.27-.103-.616-.154-1.036-.154zm12.212.91V16h-1.428l-.238-.98h-.098a2.01 2.01 0 0 1-.574.644c-.233.159-.49.275-.77.35-.28.084-.57.126-.868.126-.523 0-.975-.098-1.358-.294a2.077 2.077 0 0 1-.896-.896c-.205-.41-.308-.938-.308-1.582V8.412h1.862v4.606c0 .56.093.985.28 1.274.196.28.504.42.924.42.42 0 .747-.098.98-.294.243-.205.41-.5.504-.882.093-.383.14-.854.14-1.414v-3.71h1.848z"/></svg>
