<svg xmlns="http://www.w3.org/2000/svg" viewBox="0 0 24 24"><path fill-rule="evenodd" d="M12 16a4 4 0 1 0 0-8 4 4 0 0 0 0 8zm6-4a6 6 0 1 1-12 0 6 6 0 0 1 12 0zM11.995 2a1 1 0 0 1 1 1v1a1 1 0 1 1-2 0V3a1 1 0 0 1 1-1zm0 17a1 1 0 0 1 1 1v.996a1 1 0 1 1-2 0V20a1 1 0 0 1 1-1zM4.925 4.928a1 1 0 0 1 1.415 0l.864.865A1 1 0 1 1 5.79 7.207l-.865-.864a1 1 0 0 1 0-1.415zm11.868 11.868a1 1 0 0 1 1.414 0l.858.858a1 1 0 0 1-1.414 1.414l-.858-.858a1 1 0 0 1 0-1.414zM1.997 11.998a1 1 0 0 1 1-1h1a1 1 0 1 1 0 2h-1a1 1 0 0 1-1-1zm17 0a1 1 0 0 1 1-1h.996a1 1 0 0 1 0 2h-.996a1 1 0 0 1-1-1zm-14.072 7.07a1 1 0 0 1 0-1.414l.861-.861A1 1 0 0 1 7.2 18.207l-.86.861a1 1 0 0 1-1.415 0zM16.786 7.207a1 1 0 0 1 0-1.414l.865-.865a1 1 0 1 1 1.414 1.415l-.864.864a1 1 0 0 1-1.415 0z" clip-rule="evenodd"/></svg>
