<svg width="2000" height="2000" viewBox="0 0 2000 2000" fill="none" xmlns="http://www.w3.org/2000/svg">
<rect width="2000" height="2000" rx="1000" fill="#262626"/>
<path d="M1039.74 625.087H1228.45V1355.54H1039.74V1269.35C983.176 1340.44 903.696 1375.99 801.296 1375.99C703.771 1375.99 619.901 1338.98 549.684 1264.97C480.442 1189.97 445.821 1098.42 445.821 990.314C445.821 882.207 480.442 791.144 549.684 717.125C619.901 642.131 703.771 604.635 801.296 604.635C903.696 604.635 983.176 640.184 1039.74 711.281V625.087ZM691.582 1139.33C729.616 1177.31 777.89 1196.3 836.405 1196.3C894.919 1196.3 943.193 1177.31 981.227 1139.33C1020.24 1100.37 1039.74 1050.7 1039.74 990.314C1039.74 929.929 1020.24 880.746 981.227 842.763C943.193 803.805 894.919 784.326 836.405 784.326C777.89 784.326 729.616 803.805 691.582 842.763C653.547 880.746 634.529 929.929 634.529 990.314C634.529 1050.7 653.547 1100.37 691.582 1139.33Z" fill="white"/>
<path d="M1640.94 1338.01C1616.56 1362.36 1587.3 1374.53 1553.17 1374.53C1519.04 1374.53 1489.78 1362.36 1465.4 1338.01C1441.02 1313.66 1428.83 1284.44 1428.83 1250.36C1428.83 1216.27 1441.02 1187.05 1465.4 1162.7C1489.78 1138.35 1519.04 1126.18 1553.17 1126.18C1587.3 1126.18 1616.56 1138.35 1640.94 1162.7C1665.32 1187.05 1677.51 1216.27 1677.51 1250.36C1677.51 1284.44 1665.32 1313.66 1640.94 1338.01Z" fill="white"/>
</svg>
