<svg xmlns="http://www.w3.org/2000/svg" width="308" height="308" fill="none" viewBox="0 0 308 308"><g clip-path="url(#clip0_1887_185340)"><path fill="#F4F4F4" d="M0 0h308v308H0V0z"/><path fill="#6F767E" fill-rule="evenodd" d="M107.417 122.542c0-7.802 6.324-14.125 14.125-14.125h65.917c7.801 0 14.125 6.323 14.125 14.125v65.916c0 7.801-6.324 14.125-14.125 14.125h-65.917c-7.801 0-14.125-6.324-14.125-14.125v-65.916zm80.433 70.608c2.272-.186 2.233-3.062.694-4.743l-40.781-44.537c-5.779-6.304-15.789-6.068-21.263.502l-8.575 10.289a4.709 4.709 0 0 0-1.091 3.014v30.783a4.708 4.708 0 0 0 4.708 4.708h65.917c.131 0 .262-.005.391-.016zm-9.808-51.775a9.417 9.417 0 1 0 0-18.833 9.417 9.417 0 1 0 0 18.833z" clip-rule="evenodd" opacity=".1"/></g><defs><clipPath id="clip0_1887_185340"><path fill="#fff" d="M0 0h308v308H0z"/></clipPath></defs></svg>