<svg xmlns="http://www.w3.org/2000/svg" width="270" height="340" fill="none" viewBox="0 0 270 340"><path fill="#F3F4F1" d="M0 0h270v340H0z"/><g fill="#E6E8E4" clip-path="url(#clip0_2248_107)" opacity=".5"><path d="M226.618 79.932a5.215 5.215 0 00-3.861-1.694h-74.849a5.215 5.215 0 00-3.861 1.694 5.246 5.246 0 00-1.364 3.996l.614 7.215h84.071l.613-7.215a5.242 5.242 0 00-1.363-3.996zM154.638 224.346h61.396l10.487-123.272h-82.377l10.494 123.272zM155.22 251.791c0 7.164 5.806 12.971 12.969 12.971h34.293c7.163 0 12.969-5.807 12.969-12.971v-16.565H155.22v16.565zM134.886 217.673H68.795l-26.572 12.051c-.06.026-.123.04-.182.066v12.044c0 12.666 10.267 22.928 22.927 22.928h51.297c12.659 0 22.926-10.262 22.926-22.928v-19.855a4.304 4.304 0 00-4.305-4.306zM115.328 196.576l-26.69 12.104h34.513a3.171 3.171 0 002.69-1.508 3.189 3.189 0 00.116-3.089 13.61 13.61 0 00-8.374-6.866l-2.255-.641zM119.64 178.699a4.32 4.32 0 00-.11-3.297l-1.151-2.521a10.132 10.132 0 00-9.232-5.949c-1.397 0-2.819.297-4.177.905l-70.022 31.752c-5.094 2.308-7.35 8.315-5.043 13.41l1.145 2.527a4.32 4.32 0 002.406 2.251 4.355 4.355 0 003.297-.11l80.631-36.562a4.318 4.318 0 002.256-2.406z"/></g><defs><clipPath id="clip0_2248_107"><path fill="#fff" d="M0 0h199v199H0z" transform="translate(29 72)"/></clipPath></defs></svg>