<svg xmlns="http://www.w3.org/2000/svg" width="270" height="340" fill="none" viewBox="0 0 270 340"><g clip-path="url(#clip0_553_9)"><path fill="#F3F4F1" d="M0 0h270v340H0V0z"/><path fill="#EDEEEB" fill-rule="evenodd" d="M244.249 194.414l-19.858.47.614 53.616h-43.633l-1.805-53.959 19.551-.127-8.612-44.084-31.826-16.735 15.525-7.564c1.697-8.25 8.737-11.77 8.737-16.915 0-7.221-11.842-7.221-11.842 2.401l-7.582-1.806c.866-10.217 4.477-16.59 16.554-16.59 9.785 0 14.442 5.416 14.442 15.561 0 8.323-6.174 11.247-7.221 17.403l48.345 24.209 8.611 44.12zM133.55 248.572H47.89v-51.63l-21.121.505 8.124-47.496 49.049-23.92c1.697-8.25 8.737-11.77 8.737-16.915 0-7.221-11.842-7.221-11.842 2.401l-7.582-1.806c.866-10.217 4.477-16.59 16.554-16.59 9.784 0 14.442 5.416 14.442 15.561 0 8.323-6.174 11.247-7.221 17.403l48.345 24.245 8.611 44.084-20.165.47-.271 53.688zm-4.513-122.415c1.661-8.34 8.774-11.878 8.774-17.041 0-7.221-11.843-7.221-11.843 2.401l-7.582-1.806c.867-10.217 4.477-16.59 16.554-16.59 9.785 0 14.443 5.416 14.443 15.561 0 8.864-6.987 11.608-7.42 18.631l-12.926-1.156z" clip-rule="evenodd"/></g><defs><clipPath id="clip0_553_9"><path fill="#fff" d="M0 0h270v340H0z"/></clipPath></defs></svg>